<svg width="98" height="98" viewBox="0 0 98 98" fill="none" xmlns="http://www.w3.org/2000/svg">
<rect width="98" height="98" fill="none"/>
<path d="M62.4062 79.4856V56.8594H77.8513V61.3007H67.875V65.9408H76.8681V70.3932H67.875V79.4856H62.4062Z" fill="#00A464"/>
<path d="M45.4531 79.4856V56.8594H60.8982V61.3007H50.9219V65.9408H59.9149V70.3932H50.9219V79.4856H45.4531Z" fill="#00A464"/>
<path d="M43.5051 68.1733C43.5051 70.6627 43.0263 72.7729 42.0688 74.5037C41.1113 76.2346 39.815 77.5493 38.1799 78.4479C36.5522 79.3464 34.7256 79.7957 32.7001 79.7957C30.6673 79.7957 28.837 79.3428 27.2093 78.4368C25.5815 77.5309 24.2889 76.2162 23.3314 74.4927C22.3813 72.7618 21.9062 70.6554 21.9062 68.1733C21.9062 65.6838 22.3813 63.5736 23.3314 61.8428C24.2889 60.1119 25.5815 58.7972 27.2093 57.8986C28.837 57.0001 30.6673 56.5508 32.7001 56.5508C34.7256 56.5508 36.5522 57.0001 38.1799 57.8986C39.815 58.7972 41.1113 60.1119 42.0688 61.8428C43.0263 63.5736 43.5051 65.6838 43.5051 68.1733ZM37.9148 68.1733C37.9148 66.7002 37.7049 65.4555 37.285 64.439C36.8726 63.4226 36.276 62.6529 35.4953 62.13C34.7219 61.6071 33.7902 61.3456 32.7001 61.3456C31.6174 61.3456 30.6857 61.6071 29.905 62.13C29.1243 62.6529 28.524 63.4226 28.1042 64.439C27.6917 65.4555 27.4855 66.7002 27.4855 68.1733C27.4855 69.6463 27.6917 70.8911 28.1042 71.9075C28.524 72.9239 29.1243 73.6936 29.905 74.2165C30.6857 74.7394 31.6174 75.0009 32.7001 75.0009C33.7902 75.0009 34.7219 74.7394 35.4953 74.2165C36.276 73.6936 36.8726 72.9239 37.285 71.9075C37.7049 70.8911 37.9148 69.6463 37.9148 68.1733Z" fill="#00A464"/>
<path d="M73.3072 40.5772V39.1966C73.3072 38.1227 73.5373 37.1298 73.9975 36.2179C74.4663 35.3059 75.1438 34.573 76.0302 34.019C76.9166 33.465 77.9989 33.188 79.2773 33.188C80.5813 33.188 81.6765 33.465 82.5629 34.019C83.4577 34.5645 84.131 35.2931 84.5827 36.2051C85.043 37.1085 85.2731 38.1056 85.2731 39.1966V40.5772C85.2731 41.6511 85.043 42.644 84.5827 43.5559C84.1225 44.4679 83.445 45.2008 82.5501 45.7548C81.6552 46.3088 80.5643 46.5858 79.2773 46.5858C77.9819 46.5858 76.891 46.3088 76.0046 45.7548C75.1183 45.2008 74.445 44.4679 73.9847 43.5559C73.533 42.644 73.3072 41.6511 73.3072 40.5772ZM77.3853 39.1966V40.5772C77.3853 41.1227 77.5174 41.6468 77.7816 42.1497C78.0543 42.6525 78.5529 42.9039 79.2773 42.9039C80.0188 42.9039 80.5174 42.661 80.7731 42.1752C81.0288 41.6809 81.1566 41.1483 81.1566 40.5772V39.1966C81.1566 38.6255 81.033 38.0886 80.7859 37.5858C80.5472 37.0744 80.0444 36.8187 79.2773 36.8187C78.5614 36.8187 78.0671 37.0744 77.7944 37.5858C77.5217 38.0886 77.3853 38.6255 77.3853 39.1966ZM59.7305 25.5943V24.2136C59.7305 23.1227 59.9648 22.1255 60.4336 21.2221C60.9109 20.3102 61.5927 19.5815 62.479 19.036C63.3654 18.4821 64.4393 18.2051 65.7006 18.2051C67.0046 18.2051 68.0998 18.4821 68.9862 19.036C69.881 19.5815 70.5586 20.3102 71.0188 21.2221C71.479 22.1255 71.7092 23.1227 71.7092 24.2136V25.5943C71.7092 26.6852 71.4748 27.6823 71.006 28.5858C70.5458 29.4892 69.8683 30.2093 68.9734 30.7463C68.0785 31.2832 66.9876 31.5517 65.7006 31.5517C64.4137 31.5517 63.3228 31.2789 62.4279 30.7335C61.5416 30.188 60.8683 29.4636 60.408 28.5602C59.9563 27.6568 59.7305 26.6681 59.7305 25.5943ZM63.8469 24.2136V25.5943C63.8469 26.1653 63.9791 26.698 64.2433 27.1923C64.516 27.6781 65.0018 27.921 65.7006 27.921C66.4506 27.921 66.9492 27.6781 67.1964 27.1923C67.4521 26.698 67.5799 26.1653 67.5799 25.5943V24.2136C67.5799 23.6426 67.4606 23.1056 67.2219 22.6028C66.9833 22.0914 66.4762 21.8358 65.7006 21.8358C64.9847 21.8358 64.4947 22.0957 64.2305 22.6156C63.9748 23.1355 63.8469 23.6681 63.8469 24.2136ZM61.6609 45.4863L79.6609 19.3045H83.1509L65.1509 45.4863H61.6609Z" fill="#00A464"/>
<path d="M46.4489 45.8445C44.5398 45.8445 42.8438 45.4993 41.3608 44.8089C39.8778 44.1186 38.706 43.1683 37.8452 41.9581C36.9929 40.7479 36.5497 39.3587 36.5156 37.7905H42.652C42.7031 38.7535 43.0952 39.5291 43.8281 40.1172C44.5611 40.6967 45.4347 40.9865 46.4489 40.9865C47.2415 40.9865 47.9446 40.8118 48.5582 40.4624C49.1719 40.1129 49.6534 39.6229 50.0028 38.9922C50.3523 38.353 50.5227 37.62 50.5142 36.7933C50.5227 35.9496 50.348 35.2124 49.9901 34.5817C49.6406 33.951 49.1548 33.4609 48.5327 33.1115C47.919 32.7536 47.2116 32.5746 46.4105 32.5746C45.652 32.5661 44.9318 32.7322 44.25 33.0732C43.5767 33.4141 43.0653 33.8786 42.7159 34.4666L37.1293 33.4183L38.267 19.3047H55.0653V24.4055H43.4702L42.8693 30.5803H43.0227C43.4574 29.8558 44.1562 29.2592 45.1193 28.7905C46.0909 28.3132 47.1946 28.0746 48.4304 28.0746C49.9986 28.0746 51.3963 28.4411 52.6236 29.174C53.8594 29.8984 54.831 30.9041 55.5384 32.1911C56.2543 33.478 56.6122 34.9524 56.6122 36.6143C56.6122 38.4126 56.1861 40.0064 55.3338 41.3956C54.4901 42.7848 53.3054 43.8757 51.7798 44.6683C50.2628 45.4524 48.4858 45.8445 46.4489 45.8445Z" fill="#00A464"/>
<path d="M12.7266 41.1399V36.2053L23.4524 19.3047H27.8374V26.0036H25.2933L19.0163 35.9496V36.1541H34.549V41.1399H12.7266ZM25.37 45.4865V39.6314L25.4979 37.4709V19.3047H31.4169V45.4865H25.37Z" fill="#00A464"/>
</svg>
